<svg xmlns="http://www.w3.org/2000/svg" viewBox="0 0 800 450" width="800" height="450">
  <rect width="800" height="450" fill="#F7FAFA"/>
  <rect x="60" y="40" width="680" height="370" rx="16" fill="#FFFFFF" stroke="#D8E2E2" stroke-width="2"/>
  <rect x="60" y="40" width="680" height="64" rx="16" fill="#4A7C7C"/>
  <rect x="60" y="80" width="680" height="24" fill="#4A7C7C"/>
  <text x="90" y="82" font-family="Arial, sans-serif" font-size="26" font-weight="700" fill="#FFFFFF">Viikon aikataulu</text>

  <g font-family="Arial, sans-serif" font-size="18" font-weight="700" fill="#2B3A3A">
    <text x="90" y="135">Ma</text>
    <text x="220" y="135">Ti</text>
    <text x="350" y="135">Ke</text>
    <text x="480" y="135">To</text>
    <text x="610" y="135">Pe</text>
  </g>

  <rect x="90" y="150" width="120" height="90" rx="8" fill="#4A7C7C"/>
  <rect x="90" y="255" width="120" height="70" rx="8" fill="#A8C5D6"/>
  <rect x="220" y="150" width="120" height="100" rx="8" fill="#A8C5D6"/>
  <rect x="220" y="265" width="120" height="50" rx="8" fill="#F2A65A"/>
  <rect x="350" y="150" width="120" height="120" rx="8" fill="#4A7C7C"/>
  <rect x="480" y="150" width="120" height="70" rx="8" fill="#4A7C7C"/>
  <rect x="480" y="235" width="120" height="90" rx="8" fill="#A8C5D6"/>
  <rect x="610" y="150" width="120" height="60" rx="8" fill="#F2A65A"/>
  <rect x="610" y="225" width="120" height="100" rx="8" fill="#4A7C7C"/>

  <g font-family="Arial, sans-serif" font-size="16" font-weight="700" fill="#FFFFFF">
    <text x="102" y="178">Koulu</text>
    <text x="362" y="178">Koulu</text>
    <text x="492" y="178">Koulu</text>
    <text x="622" y="253">Koulu</text>
  </g>
  <g font-family="Arial, sans-serif" font-size="16" font-weight="700" fill="#2B3A3A">
    <text x="102" y="283">Työ</text>
    <text x="232" y="178">Työ</text>
    <text x="492" y="263">Työ</text>
    <text x="232" y="295">Deadline</text>
    <text x="622" y="178">Deadline</text>
  </g>

  <g font-family="Arial, sans-serif" font-size="14" fill="#2B3A3A">
    <rect x="90" y="360" width="16" height="16" rx="3" fill="#4A7C7C"/>
    <text x="114" y="373">Koulu</text>
    <rect x="200" y="360" width="16" height="16" rx="3" fill="#A8C5D6"/>
    <text x="224" y="373">Työ</text>
    <rect x="290" y="360" width="16" height="16" rx="3" fill="#F2A65A"/>
    <text x="314" y="373">Deadline</text>
  </g>
</svg>